<?xml version="1.0" standalone="no"?>
<!DOCTYPE svg PUBLIC "-//W3C//DTD SVG 20010904//EN"
 "http://www.w3.org/TR/2001/REC-SVG-20010904/DTD/svg10.dtd">
<svg version="1.0" xmlns="http://www.w3.org/2000/svg"
 width="453.000000pt" height="551.000000pt" viewBox="0 0 453.000000 551.000000"
 preserveAspectRatio="xMidYMid meet">

<g transform="translate(0.000000,551.000000) scale(0.100000,-0.100000)"
fill="#000000" stroke="none">
<path d="M2066 5120 c-26 -5 -55 -12 -65 -15 -9 -4 -39 -13 -68 -21 -28 -7
-79 -27 -114 -44 -34 -16 -70 -30 -78 -30 -20 0 -104 -56 -148 -98 -43 -42
-105 -127 -139 -193 -26 -48 -29 -64 -29 -146 l0 -92 -43 -16 c-73 -28 -124
-120 -143 -258 -14 -104 6 -249 49 -352 16 -38 32 -82 35 -96 4 -15 23 -55 42
-89 44 -79 53 -110 31 -110 -24 0 -99 -80 -121 -129 -20 -45 -18 -58 25 -156
10 -22 23 -55 28 -72 10 -31 10 -33 -14 -33 -33 0 -93 -26 -121 -52 -29 -27
-29 -34 0 -43 65 -23 64 -21 12 -39 -46 -15 -47 -16 -11 -10 21 3 85 21 141
40 56 19 122 34 147 34 24 0 49 5 56 12 13 13 73 -3 102 -27 20 -17 192 -131
264 -175 32 -19 83 -65 117 -105 33 -38 77 -88 99 -110 43 -43 49 -55 24 -55
-8 0 -12 -5 -8 -11 3 -6 14 -9 24 -6 13 3 16 0 13 -14 -6 -23 -16 -24 -33 -4
-7 9 -20 13 -28 10 -13 -5 -95 52 -113 78 -8 11 -63 45 -139 85 -74 40 -160
99 -154 105 3 3 -11 11 -30 18 -20 7 -36 18 -36 25 0 17 -18 22 -60 18 -34 -3
-34 -3 -5 5 l30 8 -27 7 c-36 11 -146 2 -253 -19 -49 -9 -135 -21 -190 -25
l-100 -7 90 -2 c50 -2 101 -5 115 -7 50 -9 207 -12 275 -4 84 8 137 -8 230
-70 33 -22 63 -40 67 -40 13 0 138 -84 213 -142 63 -49 70 -57 67 -85 -4 -35
20 -57 73 -68 27 -6 28 -5 10 6 -11 7 -26 18 -32 25 -7 7 -18 14 -24 16 -6 2
-10 11 -8 20 4 15 9 15 54 -5 71 -30 82 -43 60 -67 -10 -11 -26 -20 -36 -20
-10 0 -25 -7 -33 -16 -9 -8 -16 -12 -16 -7 0 5 -20 15 -45 22 -25 7 -76 33
-113 57 -73 48 -107 59 -51 18 19 -14 40 -29 48 -34 12 -7 12 -10 -2 -25 -9
-9 -17 -22 -17 -29 0 -15 63 -46 93 -45 18 1 17 2 -7 9 -30 9 -66 37 -66 52 0
20 34 19 85 -3 36 -16 55 -30 55 -41 0 -10 -7 -18 -16 -18 -8 0 -13 -4 -10 -9
8 -12 -18 -21 -43 -14 -17 4 -20 2 -15 -12 6 -15 2 -16 -37 -10 -42 7 -85 24
-64 25 19 1 -20 20 -41 20 -11 0 -43 12 -70 26 -27 14 -62 33 -79 42 -16 8
-45 26 -63 40 -25 19 -52 27 -120 34 -77 8 -260 3 -271 -8 -2 -2 43 -4 100 -5
191 -1 245 -10 324 -59 39 -24 84 -50 100 -59 17 -9 47 -29 68 -46 l36 -29
-21 -23 c-21 -22 -21 -23 -3 -43 10 -11 23 -20 28 -20 6 0 3 8 -6 18 -21 23
-21 29 -2 49 14 14 21 12 70 -13 55 -27 62 -37 46 -62 -6 -11 -17 -11 -47 -3
-21 6 -40 9 -42 6 -2 -2 10 -7 27 -12 38 -10 40 -25 3 -36 -33 -9 -75 -1 -123
24 -20 10 -40 15 -44 11 -3 -4 -5 0 -3 8 2 10 -6 15 -25 15 -25 1 -75 35 -50
35 6 0 16 -7 23 -15 7 -8 17 -15 22 -15 6 0 6 6 -1 14 -10 11 -9 15 5 18 11 2
4 11 -26 31 -24 15 -45 25 -49 21 -3 -4 0 -9 7 -11 6 -3 12 -9 12 -15 0 -15
-468 -4 -483 11 -6 6 -18 11 -27 11 -9 0 -1 -13 23 -36 21 -20 37 -38 34 -40
-2 -3 -28 4 -58 15 -63 24 -74 22 -22 -5 58 -29 75 -48 51 -57 -7 -2 -3 -2 10
0 30 5 28 -6 -9 -58 -28 -39 -29 -41 -6 -20 l26 23 -5 -23 c-3 -14 5 -6 20 21
33 59 34 23 1 -44 -13 -27 -21 -55 -18 -64 5 -11 2 -13 -6 -7 -10 6 -11 3 -2
-14 16 -29 -1 -90 -45 -161 -40 -65 -46 -92 -8 -37 60 89 184 349 184 387 0
11 5 20 10 20 11 0 14 -53 4 -63 -9 -8 -74 -171 -70 -174 11 -11 106 202 106
238 0 11 7 19 15 19 19 0 20 2 -14 -88 -16 -42 -33 -88 -36 -102 -8 -27 -97
-161 -103 -155 -2 2 4 17 12 34 24 46 19 48 -12 5 -34 -47 -45 -81 -26 -81 8
0 14 7 14 14 0 8 4 12 9 8 6 -3 15 5 22 17 7 13 21 34 33 48 12 14 44 70 71
124 47 92 50 96 53 63 3 -37 -35 -150 -48 -142 -4 3 -13 -9 -19 -25 -14 -43
-114 -172 -169 -221 -75 -66 -202 -119 -285 -119 -43 0 -80 19 -40 21 10 0 41
11 68 25 28 13 41 21 30 18 -11 -4 -46 -15 -78 -25 -33 -11 -63 -17 -68 -13
-5 3 -62 -34 -126 -83 -65 -48 -128 -94 -141 -101 -13 -8 -22 -16 -19 -18 2
-3 21 5 40 16 20 12 42 18 48 14 8 -4 9 -3 5 4 -4 7 -1 12 7 12 8 0 20 7 28
16 7 8 26 22 42 31 l30 15 -24 -31 c-13 -17 -52 -62 -86 -99 -64 -70 -133
-159 -114 -148 21 13 5 -39 -28 -92 -11 -18 -16 -20 -23 -10 -6 8 -7 2 -4 -17
5 -34 52 -164 62 -174 9 -8 1 21 -22 81 -18 47 -18 48 4 70 14 16 20 32 16 48
-4 21 -3 22 4 5 8 -17 12 -15 37 23 15 23 31 39 36 36 5 -3 9 5 9 17 0 21 31
66 129 189 114 143 137 161 199 160 106 -2 174 29 289 132 24 21 47 38 53 38
5 0 10 6 10 13 0 8 9 22 19 31 19 17 20 17 24 -6 4 -21 4 -21 6 4 0 15 22 61
47 102 26 42 48 91 51 115 3 22 9 38 14 35 5 -3 9 12 9 33 0 30 3 35 11 23 8
-12 9 -8 5 15 -5 31 12 95 26 95 4 0 8 -8 9 -17 0 -14 2 -13 9 4 12 29 30 30
30 2 0 -11 4 -18 9 -15 5 4 12 0 15 -6 3 -7 3 -1 0 13 -5 24 -2 27 37 32 61 8
76 -4 89 -70 7 -32 16 -65 22 -73 7 -12 8 -11 4 5 -15 57 -24 110 -21 113 10
10 77 -44 90 -72 l14 -31 -6 29 c-6 27 -4 29 18 22 13 -4 33 -10 45 -13 12 -3
29 -24 43 -53 13 -27 50 -90 82 -140 33 -50 59 -93 59 -96 0 -13 114 -146 172
-199 80 -75 126 -110 208 -159 36 -21 67 -40 69 -42 2 -2 -12 -28 -31 -56 -71
-105 -121 -233 -163 -418 -10 -41 -13 -48 -14 -25 -1 21 -4 26 -10 17 -11 -18
-123 109 -203 228 -62 93 -117 160 -98 123 5 -12 15 -25 20 -28 6 -3 10 -15
10 -26 0 -11 9 -38 21 -61 20 -40 113 -164 127 -170 4 -2 29 -29 56 -60 27
-31 59 -59 72 -62 38 -10 64 10 64 47 1 46 15 102 51 197 l32 83 46 -46 c25
-25 65 -62 88 -82 42 -37 42 -37 27 -67 -23 -44 -23 -817 0 -872 12 -29 20
-35 40 -34 15 1 29 10 32 20 8 25 34 23 34 -3 0 -12 5 -19 13 -16 8 3 12 31
10 98 -2 108 2 107 20 -10 7 -48 18 -86 25 -89 7 -2 19 12 27 32 16 37 35 48
35 20 0 -33 29 7 32 44 4 41 13 29 23 -33 l7 -40 18 22 c20 25 30 20 30 -14 0
-45 25 -18 28 31 2 26 7 44 13 41 5 -4 12 2 16 12 3 10 14 25 24 33 16 14 17
21 4 100 -7 47 -27 137 -43 200 -17 63 -43 165 -57 225 -49 208 -64 257 -80
269 -16 11 -13 20 27 102 49 98 70 134 78 134 14 0 80 -184 80 -223 0 -51 11
-77 30 -77 10 0 22 -9 25 -20 9 -28 23 -16 18 14 -4 17 2 30 17 43 23 19 130
193 130 211 0 6 14 40 30 76 55 119 120 330 120 390 0 31 -4 56 -10 56 -5 0
-10 8 -10 18 -1 9 -16 -43 -35 -116 -19 -74 -43 -151 -54 -172 -11 -21 -26
-60 -34 -87 -24 -80 -122 -284 -148 -309 -14 -13 -19 -4 -48 88 -18 57 -47
130 -64 163 -16 33 -37 74 -45 90 -9 17 -20 33 -25 37 -17 11 51 87 88 97 54
15 153 88 174 129 27 53 61 169 61 206 0 21 -14 -9 -40 -89 -24 -70 -50 -129
-63 -142 -25 -24 -95 -44 -82 -23 5 7 -10 3 -31 -8 -97 -53 -198 -78 -389 -95
-63 -6 -156 46 -270 150 -27 26 -84 76 -125 112 -214 184 -296 287 -255 317 8
6 21 24 29 40 14 25 14 30 0 45 -9 10 -40 27 -70 39 -65 27 -65 36 -1 19 56
-14 107 0 136 37 21 27 31 30 31 10 0 -7 12 -31 26 -52 15 -21 38 -59 52 -84
42 -76 90 -128 125 -136 61 -13 137 -3 259 37 112 36 127 43 164 84 l41 46 46
-13 c67 -18 219 4 264 37 17 14 36 25 41 25 5 0 34 20 65 45 32 27 61 43 69
40 21 -8 45 22 30 37 -7 7 -12 20 -12 30 0 17 2 17 23 4 12 -8 41 -18 65 -22
23 -4 42 -8 42 -9 0 -18 -58 -152 -126 -290 -18 -38 -36 -86 -39 -105 -5 -32
-4 -30 14 13 30 74 39 82 66 57 54 -50 180 -110 230 -109 l40 1 -36 9 c-43 10
-165 68 -208 99 -40 28 -39 51 3 142 18 40 45 99 59 130 24 52 30 58 69 68
106 27 191 77 242 143 47 60 54 84 65 217 8 83 13 107 27 115 9 6 30 21 46 35
26 22 28 28 19 53 -6 16 -11 38 -11 51 0 21 -46 76 -64 76 -9 0 -165 117 -191
144 -11 12 -48 46 -83 75 -61 53 -63 56 -57 92 4 20 2 55 -4 76 -9 33 -7 55
10 119 53 206 77 526 43 592 -8 18 -20 35 -26 38 -7 4 -3 13 10 23 31 24 102
123 109 151 3 14 15 40 25 58 16 25 19 43 14 74 -9 55 -81 146 -153 194 -32
21 -73 52 -92 70 -53 50 -215 129 -301 147 -181 39 -277 43 -445 21 -25 -4
-35 -2 -27 4 19 13 -43 29 -225 57 -158 25 -293 30 -387 15z m229 -20 c3 -5
-3 -10 -15 -10 -12 0 -18 5 -15 10 3 6 10 10 15 10 5 0 12 -4 15 -10z m-255
-54 c0 -3 -25 -17 -55 -32 -59 -28 -91 -62 -76 -77 6 -6 28 2 58 20 26 16 57
32 68 35 11 3 29 9 40 13 13 4 8 -4 -14 -24 -30 -26 -32 -31 -17 -37 10 -4 33
1 52 10 45 21 47 20 40 -8 -7 -27 2 -40 19 -26 24 20 105 59 105 51 0 -5 -7
-14 -15 -21 -17 -14 -21 -50 -5 -50 15 0 60 23 60 30 0 4 8 10 18 13 9 2 26 8
37 13 17 7 15 2 -8 -25 -42 -50 -25 -93 21 -51 11 11 25 20 30 20 5 0 15 6 21
14 7 8 27 19 44 25 26 9 29 8 16 -2 -27 -20 -51 -77 -45 -103 l6 -24 36 35
c19 19 40 35 47 35 7 0 3 -8 -8 -18 -12 -9 -38 -39 -59 -65 l-39 -49 44 22
c24 12 58 35 74 50 29 27 171 110 189 110 10 0 -90 -70 -101 -71 -19 -1 -93
-101 -93 -124 0 -34 13 -31 53 9 18 19 44 40 58 45 13 6 35 19 49 28 l25 17
-20 -24 c-23 -28 -7 -20 48 23 20 16 74 42 119 58 87 30 114 32 53 3 -20 -9
-44 -29 -53 -43 -9 -14 -27 -34 -40 -45 -13 -10 -21 -21 -18 -23 11 -11 -47
-72 -75 -78 -16 -4 -31 -5 -33 -3 -2 2 -12 -4 -22 -13 -11 -9 -29 -20 -41 -23
-35 -11 -29 18 10 49 26 22 28 25 10 20 -27 -8 -30 3 -6 21 10 7 15 15 12 19
-4 3 -24 -14 -44 -39 -20 -25 -41 -43 -46 -40 -5 3 -8 2 -7 -3 2 -4 -49 -60
-113 -123 -132 -132 -203 -220 -244 -304 -16 -32 -31 -53 -33 -48 -2 6 4 26
14 44 29 57 141 222 168 247 14 14 26 30 26 38 0 7 15 30 33 50 18 21 46 59
61 86 l27 47 -30 -18 c-17 -10 -47 -33 -67 -51 -19 -18 -37 -31 -40 -29 -2 3
5 21 15 41 10 20 15 37 10 37 -17 0 -191 -163 -252 -236 -34 -41 -65 -74 -70
-74 -4 0 -6 -3 -4 -7 2 -5 -4 -16 -15 -25 -25 -25 -23 -15 11 47 35 63 62 96
73 89 4 -3 11 3 15 12 4 10 21 33 39 53 18 19 31 38 28 43 -3 5 0 7 7 6 7 -2
13 2 14 9 0 7 18 31 40 54 22 24 39 46 38 50 -2 4 9 17 24 28 14 12 22 21 17
21 -11 -1 -111 -69 -196 -133 -35 -27 -51 -38 -37 -24 28 26 55 67 51 80 -1 4
5 7 13 7 8 0 19 9 25 19 14 27 13 30 -10 28 -11 -1 -20 -5 -20 -10 0 -4 -5 -5
-11 -2 -6 4 -13 -2 -16 -14 -3 -12 -8 -21 -12 -21 -3 0 -17 -3 -31 -7 l-25 -6
29 32 c17 17 24 31 17 31 -11 0 -11 3 0 17 13 15 12 15 -11 3 -14 -7 -34 -21
-45 -31 -130 -118 -156 -134 -97 -63 85 106 85 104 66 97 -17 -6 -18 -5 -4 12
26 34 -72 -47 -141 -116 -52 -52 -64 -59 -55 -37 6 15 23 43 38 60 34 40 51
85 37 94 -6 3 -16 1 -22 -5 -27 -27 -28 -8 -1 21 l29 32 -29 -23 c-16 -12 -36
-31 -43 -41 -20 -28 -37 -25 -18 4 15 23 15 23 -21 20 l-36 -3 28 30 c16 17
22 28 14 24 -8 -3 -26 -21 -40 -40 -25 -34 -48 -50 -58 -41 -2 3 9 21 27 41
34 39 35 43 21 65 -8 13 -12 12 -27 -4 -10 -10 -13 -16 -6 -12 17 9 27 -12 13
-28 -6 -8 -20 -12 -30 -9 -11 3 -26 0 -34 -6 -10 -8 -16 -8 -25 3 -10 12 -9
19 6 34 10 10 26 29 37 43 10 13 -2 2 -28 -24 -25 -27 -46 -43 -46 -36 0 7 17
31 38 54 l37 40 -37 -34 c-34 -31 -68 -37 -68 -12 0 24 154 116 229 137 23 6
22 3 -12 -37 -25 -29 -37 -52 -37 -73 l0 -30 48 47 c55 55 212 138 212 113z
m990 -241 c0 -3 -25 -17 -56 -32 -31 -15 -59 -35 -62 -45 -2 -10 -8 -18 -13
-18 -5 0 -28 -17 -52 -38 -23 -21 -50 -42 -60 -45 -25 -9 42 55 75 72 14 7 24
19 22 26 -6 15 35 45 91 68 43 17 55 20 55 12z m530 -112 c31 -25 32 -29 28
-85 -2 -32 -10 -64 -17 -71 -10 -10 -11 -3 -6 33 6 42 4 48 -30 88 -31 35 -43
42 -73 42 l-36 0 33 -34 c26 -27 32 -40 29 -67 l-4 -34 -17 35 c-30 63 -61 85
-132 93 l-30 3 35 11 c19 6 70 12 112 12 69 1 80 -2 108 -26z m-280 13 c0 -11
-70 -46 -91 -46 -23 0 -23 0 -4 14 30 20 95 42 95 32z m-1250 -90 c0 -2 -8
-10 -17 -17 -16 -13 -17 -12 -4 4 13 16 21 21 21 13z m1440 -87 c0 -25 -15
-32 -30 -14 -10 12 -10 18 0 30 6 8 9 20 5 27 -4 7 1 4 9 -6 9 -11 16 -28 16
-37z m-1487 19 c-11 -13 -27 -34 -36 -48 -10 -13 -17 -20 -17 -15 0 12 58 85
67 85 4 0 -3 -10 -14 -22z m-453 -42 c0 -13 9 -31 20 -41 15 -14 17 -21 8 -26
-16 -10 -28 -2 -28 21 0 13 -5 17 -15 14 -16 -6 -21 20 -9 50 8 22 24 10 24
-18z m175 -148 c12 -2 21 -13 23 -26 4 -25 -10 -29 -28 -7 -10 12 -16 13 -27
4 -10 -9 -18 -8 -33 6 -23 21 -26 45 -7 64 10 10 16 7 32 -12 11 -14 29 -27
40 -29z m817 -5 c-15 -27 -65 -72 -56 -50 3 9 10 17 15 17 5 0 16 14 24 31 9
17 19 29 22 26 2 -3 0 -14 -5 -24z m763 -45 c-32 -29 -73 -66 -93 -83 -103
-87 -132 -119 -150 -169 -16 -41 -18 -62 -12 -106 13 -86 39 -150 62 -150 5 0
-1 13 -12 28 -22 29 -39 109 -33 158 8 76 15 92 54 130 l41 39 -16 -39 c-19
-45 -21 -158 -5 -205 19 -54 179 -145 179 -101 0 6 6 10 13 10 7 0 21 6 32 13
16 12 10 13 -39 9 -59 -5 -77 5 -89 50 -5 16 -3 16 16 3 27 -19 48 -20 22 -1
-26 19 -43 83 -33 123 15 58 75 143 125 179 34 24 49 30 54 21 23 -41 31 -137
27 -330 -1 -114 -1 -208 2 -210 3 -1 18 -39 33 -84 22 -65 27 -92 21 -128 -3
-25 -10 -48 -15 -51 -10 -6 -39 19 -39 33 0 14 -62 33 -107 33 -41 0 -75 -19
-220 -124 -20 -14 -44 -22 -67 -21 -34 1 -36 -1 -38 -35 0 -19 -2 -47 -2 -62
-1 -15 -5 -30 -9 -34 -4 -4 -1 -14 7 -23 18 -21 58 -118 85 -205 26 -82 28
-78 -81 -102 -43 -9 -78 -20 -78 -24 0 -17 15 -18 42 -4 15 8 54 19 86 25 41
8 66 19 89 42 53 50 46 26 -9 -31 -27 -29 -54 -50 -58 -47 -5 3 -47 -7 -94
-23 -79 -27 -146 -32 -146 -12 0 4 16 11 35 14 70 14 41 23 -63 20 -209 -6
-354 -26 -429 -60 -17 -8 -34 -14 -38 -14 -4 0 -45 -18 -91 -40 l-83 -40 -24
23 c-12 12 -52 58 -87 101 -36 45 -85 93 -114 110 -33 21 -44 32 -33 34 22 4
22 43 1 85 -19 36 -44 187 -44 265 0 51 2 55 58 110 32 31 69 64 83 73 l24 17
-30 -5 -30 -4 38 33 c43 38 48 70 15 105 -17 18 -19 26 -10 35 15 15 16 68 2
68 -11 0 -7 114 5 143 4 9 4 25 0 35 -13 32 -12 107 3 129 12 19 17 20 33 10
10 -6 19 -17 19 -24 0 -17 17 -17 24 0 5 10 7 10 12 0 3 -7 11 -13 19 -13 7 0
18 -7 25 -15 9 -11 22 -14 42 -9 23 4 35 1 55 -18 23 -22 32 -23 141 -22 112
1 222 22 222 43 0 5 18 16 40 26 22 10 88 65 147 122 59 56 109 103 110 103
12 0 -4 -24 -47 -69 -27 -29 -50 -60 -50 -68 0 -15 86 73 104 106 24 43 50 61
91 61 22 0 46 5 53 12 9 9 17 9 36 -1 29 -16 85 1 181 53 33 18 62 32 64 30 2
-2 -22 -27 -54 -56z m-1505 -8 c0 -32 -1 -33 -24 -24 -16 6 -22 35 -9 47 16
17 33 5 33 -23z m1560 26 c0 -3 -15 -14 -32 -26 l-33 -22 28 26 c27 25 37 31
37 22z m-1504 -56 c8 0 14 -9 14 -19 0 -14 5 -18 20 -14 17 5 20 0 20 -29 0
-32 2 -35 32 -36 17 0 34 -5 37 -10 3 -4 14 -11 24 -15 9 -3 17 -13 17 -22 0
-12 4 -14 19 -5 27 14 31 13 31 -8 0 -13 -8 -19 -27 -19 -16 -1 -39 -5 -52 -9
-19 -6 -23 -4 -19 7 11 29 -10 59 -42 59 -20 0 -30 5 -30 15 0 19 -39 55 -61
55 -17 0 -29 19 -29 47 0 10 6 13 16 9 9 -3 22 -6 30 -6z m-566 -27 c0 -97 7
-234 14 -268 6 -28 5 -37 -2 -30 -24 23 -43 239 -26 303 8 30 14 28 14 -5z
m1155 -53 c-9 -16 -20 -30 -26 -30 -5 0 0 14 13 30 12 17 23 30 25 30 2 0 -3
-13 -12 -30z m-825 -35 c-7 -8 -17 -15 -23 -15 -5 0 -2 9 8 20 21 23 35 19 15
-5z m-246 -11 c9 -24 7 -92 -3 -98 -11 -7 -35 89 -26 104 9 15 22 12 29 -6z
m79 -43 c10 -21 12 -42 7 -71 -4 -23 -5 -72 -3 -108 4 -46 2 -64 -5 -57 -16
15 -43 129 -37 161 2 16 7 46 10 67 3 20 8 37 10 37 2 0 10 -13 18 -29z m929
7 c-7 -7 -12 -8 -12 -2 0 14 12 26 19 19 2 -3 -1 -11 -7 -17z m-720 -87 c-34
-34 -52 -46 -55 -37 -5 13 91 101 101 92 2 -3 -18 -27 -46 -55z m648 -1 c13
-8 13 -10 -2 -10 -9 0 -25 -3 -35 -7 -16 -6 -16 -5 -4 10 16 20 20 20 41 7z
m285 -30 c-3 -5 -12 -10 -18 -10 -7 0 -6 4 3 10 19 12 23 12 15 0z m-915 -163
c0 -16 -4 -26 -10 -22 -5 3 -10 23 -10 43 0 28 3 33 10 22 5 -8 10 -28 10 -43z
m-156 -296 c11 -12 16 -21 12 -21 -13 0 -66 41 -66 51 0 13 30 -4 54 -30z
m-20 -32 c30 -16 71 -50 91 -75 20 -24 40 -42 45 -39 4 3 24 -13 44 -35 28
-31 36 -49 36 -78 1 -20 11 -78 23 -129 23 -94 41 -121 93 -137 22 -7 74 -56
58 -55 -5 0 -49 29 -99 64 -108 78 -203 127 -228 119 -10 -3 -25 0 -33 7 -9 7
-48 18 -88 24 l-71 11 -39 103 -38 103 23 50 c27 58 70 98 105 98 13 0 49 -14
78 -31z m1951 -89 c25 -9 27 -14 20 -48 -8 -45 -15 -58 -24 -43 -4 6 -38 12
-76 15 -39 3 -81 9 -95 14 -24 9 -23 10 25 31 28 12 57 26 65 31 20 12 53 12
85 0z m-1586 -127 c-1 -38 -1 -38 -9 -9 -8 27 -6 46 6 46 2 0 4 -17 3 -37z
m1751 -61 l94 -89 -84 -6 c-62 -5 -86 -3 -92 6 -6 9 -8 8 -8 -4 0 -11 -18 -21
-63 -32 -35 -8 -93 -29 -129 -46 -36 -17 -80 -31 -99 -32 -25 0 -29 -2 -16 -8
16 -6 12 -12 -29 -44 -26 -20 -51 -37 -55 -37 -14 0 -20 33 -7 42 10 6 10 8 1
8 -12 0 -43 60 -43 82 0 5 13 0 28 -11 16 -11 41 -23 58 -26 25 -6 22 -3 -18
24 -27 17 -48 35 -48 41 0 5 -7 10 -15 10 -8 0 -19 9 -25 20 -8 15 -8 20 3 20
7 0 17 -4 23 -9 10 -9 152 4 163 15 3 4 -12 3 -34 0 -43 -8 -42 -6 17 38 21
15 41 38 44 51 3 12 15 26 27 29 29 8 107 8 107 0 0 -3 -21 -26 -47 -50 -25
-24 -40 -44 -32 -44 7 0 41 29 75 65 34 36 66 65 71 65 6 0 16 -26 23 -57 17
-82 21 -86 15 -21 -3 31 -8 63 -11 72 -12 32 15 14 106 -72z m-350 24 c0 -41
-95 -86 -135 -63 -24 13 -7 27 20 17 37 -14 78 7 72 37 -3 19 0 23 19 23 14 0
24 -6 24 -14z m-199 -39 c-10 -9 -11 -8 -5 6 3 10 9 15 12 12 3 -3 0 -11 -7
-18z m-31 -7 c0 -5 -5 -10 -11 -10 -5 0 -7 5 -4 10 3 6 8 10 11 10 2 0 4 -4 4
-10z m85 -40 c36 -18 37 -20 13 -20 -37 0 -58 10 -58 26 0 18 -2 18 45 -6z
m785 -119 c0 -13 -26 -21 -67 -21 -30 0 -34 2 -23 15 13 16 90 21 90 6z m-191
-37 c32 -23 12 -41 -27 -25 -68 29 -313 -13 -411 -70 -18 -11 -35 -18 -37 -16
-6 5 66 52 91 60 11 3 58 19 105 36 69 25 101 31 170 31 63 0 92 -4 109 -16z
m-469 -28 c0 -2 -7 -9 -15 -16 -13 -11 -14 -10 -9 4 5 14 24 23 24 12z m465
-38 c-4 -14 -9 -47 -21 -143 -6 -53 -12 -64 -51 -102 -24 -24 -58 -50 -75 -59
-41 -21 -140 -55 -145 -50 -3 2 6 7 19 11 142 45 224 127 242 243 6 40 5 43
-21 53 -20 7 -29 7 -31 -1 -2 -6 -17 -17 -34 -26 -22 -12 -33 -13 -43 -4 -16
13 -23 10 -82 -37 -36 -30 -45 -33 -63 -23 -29 16 -96 -9 -135 -50 -32 -33
-45 -38 -45 -16 0 20 97 124 133 142 27 14 32 14 61 -1 30 -16 34 -16 62 -1
16 9 41 26 55 37 22 18 30 19 48 9 26 -13 74 -5 92 16 14 17 40 19 34 2z
m-2230 -13 c-18 -9 -63 -14 -115 -13 l-85 0 50 13 c28 7 79 13 115 13 63 0 64
0 35 -13z m108 -2 c-7 -2 -21 -2 -30 0 -10 3 -4 5 12 5 17 0 24 -2 18 -5z
m1537 -113 c0 -5 -4 -10 -10 -10 -5 0 -10 5 -10 10 0 6 5 10 10 10 6 0 10 -4
10 -10z m5 -73 c7 -20 26 -53 41 -73 58 -72 57 -70 42 -99 -8 -14 -25 -32 -39
-38 -13 -7 -24 -19 -24 -26 0 -8 -18 -20 -40 -28 -35 -12 -44 -12 -77 3 -28
13 -38 23 -38 41 0 20 -5 23 -35 23 -33 0 -35 2 -29 28 25 112 60 176 109 198
49 22 75 14 90 -29z m-370 -18 c30 -8 42 -15 38 -25 -4 -11 -9 -10 -29 3 -38
25 -211 11 -280 -22 -28 -14 -55 -25 -60 -25 -16 0 -87 -41 -124 -71 -54 -45
-59 -34 -6 12 115 102 329 161 461 128z m945 -80 c-42 -36 -104 -71 -145 -82
-16 -4 -37 -9 -45 -12 -65 -20 -95 -23 -114 -12 -18 10 -12 12 44 19 36 4 80
11 98 17 45 14 162 80 162 91 0 6 8 10 18 10 12 0 8 -8 -18 -31z m-930 -28
c-1 -9 -19 -28 -41 -44 -22 -15 -38 -31 -35 -35 6 -11 -31 -58 -39 -50 -4 4 0
17 9 30 26 37 18 38 -19 1 -27 -27 -38 -32 -52 -25 -30 15 -45 5 -99 -66 -9
-12 -14 -12 -32 -1 -17 11 -25 11 -46 0 -34 -19 -71 -90 -63 -123 9 -33 27
-39 94 -31 42 4 65 14 92 37 l35 31 -21 -35 c-16 -25 -38 -41 -80 -58 -32 -13
-59 -28 -61 -33 -2 -5 -8 -9 -13 -9 -14 0 -89 71 -89 84 0 6 -9 22 -20 36 -25
32 -25 40 0 40 13 0 20 7 20 19 0 10 19 40 41 65 38 43 45 46 89 46 42 0 52 4
78 35 30 33 34 34 91 32 58 -2 61 -1 98 39 38 40 63 47 63 15z m550 -113 c0
-21 -30 -58 -47 -58 -7 0 -24 -12 -38 -27 -21 -23 -27 -25 -35 -13 -8 12 -13
12 -44 -2 -19 -10 -42 -28 -51 -42 -15 -22 -22 -25 -58 -20 -23 3 -64 -1 -92
-8 -50 -14 -105 -6 -105 15 0 4 4 6 9 2 6 -3 21 29 34 72 29 93 47 101 104 54
41 -34 73 -38 125 -17 50 21 87 64 101 114 l12 44 42 -48 c24 -27 43 -56 43
-66z m-1076 -74 c3 -8 2 -12 -4 -9 -6 3 -10 10 -10 16 0 14 7 11 14 -7z m-14
-29 c0 -5 -5 -3 -10 5 -5 8 -10 20 -10 25 0 6 5 3 10 -5 5 -8 10 -19 10 -25z
m-24 -6 c12 -25 18 -29 25 -18 5 8 9 10 10 4 1 -5 3 -23 5 -40 l3 -29 -20 29
c-27 41 -51 85 -45 85 3 0 13 -14 22 -31z m962 -8 c-7 -11 -17 -19 -22 -18 -6
1 -15 -8 -21 -20 -5 -13 -13 -23 -18 -23 -13 0 11 37 39 59 33 26 37 26 22 2z
m-1854 -80 c3 -4 -6 -6 -19 -3 -14 2 -25 6 -25 8 0 8 39 4 44 -5z m196 -38 c0
-5 -7 -16 -14 -26 -12 -16 -13 -15 -13 8 0 15 5 25 13 25 8 0 14 -3 14 -7z
m796 -71 c-8 -8 -24 8 -45 45 l-21 38 35 -39 c19 -22 33 -41 31 -44z m399 58
c-2 -4 -19 -7 -37 -8 -30 -1 -31 1 -15 13 18 13 61 9 52 -5z m-1363 -32 c-6
-6 -7 0 -4 19 5 21 7 23 10 9 2 -10 0 -22 -6 -28z m1280 10 c-11 -10 -134 -40
-140 -34 -3 3 1 6 9 6 8 1 32 9 53 19 37 18 93 24 78 9z m-236 -55 c-7 -8 -59
21 -64 35 -2 7 11 4 33 -9 20 -12 34 -24 31 -26z m289 27 c-3 -5 -14 -10 -23
-10 -15 0 -15 2 -2 10 20 13 33 13 25 0z m-703 -32 c20 -31 31 -68 21 -68 -5
0 -17 16 -26 35 -26 54 -22 75 5 33z m53 -26 c14 -47 4 -47 -19 0 -19 37 -20
51 -4 46 6 -2 17 -23 23 -46z m472 2 c-3 -3 -12 -4 -19 -1 -8 3 -5 6 6 6 11 1
17 -2 13 -5z m-1215 -106 c-7 -7 -12 -8 -12 -2 0 14 12 26 19 19 2 -3 -1 -11
-7 -17z m1028 -231 c41 -37 78 -67 83 -67 4 0 6 -4 3 -9 -7 -10 59 -71 76 -71
6 0 9 -3 6 -6 -9 -8 -48 14 -80 44 -27 25 -28 25 -28 4 0 -24 35 -52 65 -52
12 0 25 -4 31 -9 5 -5 47 -21 94 -37 47 -15 78 -30 69 -32 -16 -3 -90 21 -206
67 -29 12 -53 17 -53 12 0 -5 25 -19 55 -31 30 -12 52 -27 49 -32 -3 -5 2 -16
12 -25 33 -26 -78 39 -121 71 -85 66 -263 259 -273 299 -2 6 19 -12 46 -40 28
-29 54 -53 57 -53 4 0 -12 19 -34 43 -46 48 -81 94 -63 83 7 -4 12 -3 12 3 0
5 -4 13 -10 16 -5 3 -15 16 -21 28 -7 12 26 -14 72 -58 46 -44 118 -110 159
-148z m185 -133 l30 -25 -30 13 c-16 7 -43 26 -60 42 l-30 29 30 -17 c17 -10
44 -29 60 -42z m65 -49 c14 -8 21 -14 15 -14 -5 0 -21 6 -35 14 -14 8 -20 14
-15 14 6 0 21 -6 35 -14z m400 -30 c-7 -9 -21 -20 -31 -26 -22 -11 -140 -28
-134 -19 3 4 28 10 57 14 33 5 62 16 81 32 31 26 49 25 27 -1z m-294 0 c27 -8
60 -15 74 -15 14 0 32 -5 40 -10 10 -7 -7 -9 -57 -7 -40 1 -68 4 -62 6 6 2 -6
11 -27 21 -48 23 -33 25 32 5z m-96 -25 c19 -5 76 -18 125 -28 l90 -20 -60 -1
c-59 -1 -207 39 -230 62 -7 6 -2 7 15 3 14 -4 41 -11 60 -16z m25 -46 l30 -13
-30 -1 c-16 0 -43 9 -60 20 l-30 21 30 -7 c17 -4 44 -13 60 -20z m-1811 -9
c-4 -8 -10 -15 -14 -15 -4 0 -19 -18 -34 -40 -15 -23 -31 -38 -37 -35 -5 4 -9
3 -8 -2 3 -19 -2 -33 -12 -33 -5 0 -7 6 -4 13 4 6 -1 3 -9 -7 -12 -15 -16 -16
-16 -5 0 20 44 61 55 52 4 -5 5 -2 1 5 -5 9 6 25 31 47 42 37 56 43 47 20z
m2081 4 c-12 -18 -58 -30 -85 -23 -22 7 -20 9 25 20 65 16 67 16 60 3z m-2225
-153 c0 -2 -13 -20 -30 -41 -34 -43 -40 -36 -10 13 16 26 40 43 40 28z m1890
0 c0 -3 -4 -8 -10 -11 -5 -3 -10 -1 -10 4 0 6 5 11 10 11 6 0 10 -2 10 -4z
m-1919 -98 c-31 -42 -40 -45 -20 -5 15 29 41 58 47 53 2 -3 -10 -24 -27 -48z
m2279 -54 c0 -3 -8 -16 -19 -29 -13 -17 -21 -21 -29 -13 -8 8 -5 16 11 29 22
19 37 24 37 13z"/>
<path d="M1705 4850 c-3 -5 -1 -10 4 -10 6 0 11 5 11 10 0 6 -2 10 -4 10 -3 0
-8 -4 -11 -10z"/>
<path d="M2813 4839 c-35 -22 -46 -37 -15 -20 22 13 58 40 52 41 -3 0 -20 -10
-37 -21z"/>
<path d="M2375 4790 c-3 -6 1 -7 9 -4 18 7 21 14 7 14 -6 0 -13 -4 -16 -10z"/>
<path d="M2745 4748 c-20 -21 -24 -27 -10 -20 24 12 62 52 49 52 -5 0 -22 -15
-39 -32z"/>
<path d="M2379 4729 l-24 -20 28 17 c15 9 27 18 27 20 0 8 -8 4 -31 -17z"/>
<path d="M2266 4655 c-11 -8 -17 -17 -14 -20 2 -3 13 4 23 15 21 23 18 25 -9
5z"/>
<path d="M2890 3579 c0 -5 5 -7 10 -4 6 3 10 8 10 11 0 2 -4 4 -10 4 -5 0 -10
-5 -10 -11z"/>
<path d="M2538 3553 c12 -2 30 -2 40 0 9 3 -1 5 -23 4 -22 0 -30 -2 -17 -4z"/>
<path d="M2390 3530 c8 -5 26 -9 40 -9 l25 1 -25 8 c-14 4 -32 8 -40 9 -13 1
-13 0 0 -9z"/>
<path d="M2934 3508 l-19 -23 23 19 c12 11 22 21 22 23 0 8 -8 2 -26 -19z"/>
<path d="M2343 3513 c9 -2 25 -2 35 0 9 3 1 5 -18 5 -19 0 -27 -2 -17 -5z"/>
<path d="M2468 3513 c6 -2 18 -2 25 0 6 3 1 5 -13 5 -14 0 -19 -2 -12 -5z"/>
<path d="M2265 3500 c3 -5 8 -10 11 -10 2 0 4 5 4 10 0 6 -5 10 -11 10 -5 0
-7 -4 -4 -10z"/>
<path d="M2410 3506 c0 -2 9 -6 20 -9 11 -3 18 -1 14 4 -5 9 -34 13 -34 5z"/>
<path d="M2236 3483 c-6 -14 -5 -15 5 -6 7 7 10 15 7 18 -3 3 -9 -2 -12 -12z"/>
<path d="M2141 3414 c0 -11 3 -14 6 -6 3 7 2 16 -1 19 -3 4 -6 -2 -5 -13z"/>
<path d="M2861 3300 c-2 -34 -19 -87 -20 -63 -1 12 -42 2 -85 -19 -12 -6 -22
-6 -29 1 -7 7 -16 7 -29 0 -13 -7 -18 -6 -18 2 0 7 -9 9 -22 6 -12 -3 -33 0
-47 8 -14 7 -74 18 -133 24 -59 6 -116 16 -127 23 -16 9 -27 9 -58 -4 -21 -9
-57 -21 -79 -27 -28 -7 -50 -23 -68 -46 -15 -19 -23 -35 -19 -35 11 1 49 30
38 30 -4 0 0 9 10 20 10 11 23 20 29 20 6 0 0 -7 -12 -16 -12 -8 -20 -19 -17
-24 3 -5 1 -11 -5 -15 -18 -11 -11 -35 11 -35 13 0 18 4 13 12 -5 7 -2 9 8 5
9 -3 21 0 27 6 15 15 131 17 194 3 l52 -13 -40 -8 c-42 -8 -198 -82 -203 -96
-2 -4 -19 -18 -38 -29 -19 -12 -34 -26 -34 -31 0 -5 11 -2 25 7 14 9 25 12 25
6 0 -6 20 0 44 14 l43 24 38 -30 c33 -26 35 -30 16 -30 -12 0 -32 5 -44 11
-20 9 -20 9 -4 -4 17 -14 125 -32 135 -22 3 3 -6 5 -19 6 -17 0 -8 6 29 20 51
20 79 49 66 70 -4 6 -11 2 -18 -11 -6 -13 -15 -22 -20 -21 -5 2 -12 -2 -15 -7
-3 -6 -18 -13 -33 -17 -21 -5 -29 -2 -38 14 -11 22 -7 24 25 11 13 -5 26 -3
38 8 14 12 17 13 17 1 1 -10 4 -9 11 3 7 12 6 24 -1 38 -6 11 -7 20 -3 21 56
6 98 2 96 -8 -2 -7 3 -10 11 -7 8 3 17 0 22 -7 5 -8 3 -10 -7 -4 -8 5 -11 4
-6 -1 5 -5 12 -9 15 -9 33 -1 41 -38 15 -69 -10 -12 -4 -9 13 7 16 15 37 27
45 27 14 1 49 23 49 32 0 3 -11 3 -24 1 -15 -3 -36 4 -55 18 -37 27 -42 49 -7
25 18 -11 31 -13 48 -7 13 6 17 10 9 10 -8 1 -12 4 -8 7 3 3 19 -2 34 -11 28
-16 31 -16 65 2 46 25 88 74 88 104 0 13 -4 44 -8 69 -9 44 -10 45 -11 10z
m-581 -90 c0 -5 -5 -10 -11 -10 -5 0 -7 5 -4 10 3 6 8 10 11 10 2 0 4 -4 4
-10z m570 -20 c0 -5 -5 -10 -11 -10 -5 0 -7 5 -4 10 3 6 8 10 11 10 2 0 4 -4
4 -10z m-541 -108 c-36 -27 -79 -53 -79 -48 0 7 83 65 94 66 5 0 -2 -8 -15
-18z"/>
<path d="M2704 3024 c-18 -8 -117 -104 -106 -104 5 0 15 7 22 15 7 8 19 15 26
15 7 0 21 11 30 25 20 31 30 26 14 -7 l-11 -23 20 24 c17 18 30 64 19 60 -2 0
-8 -3 -14 -5z"/>
<path d="M2240 2995 c0 -2 19 -14 43 -25 54 -27 165 -29 225 -4 56 22 49 27
-13 9 -66 -20 -132 -18 -184 5 -41 19 -71 25 -71 15z"/>
<path d="M1330 3411 c-5 -11 -9 -32 -9 -48 1 -17 3 -21 6 -10 7 27 19 20 30
-20 11 -38 11 -38 7 12 l-4 50 14 -35 c12 -29 15 -31 15 -12 l1 23 36 -24 c19
-14 46 -39 58 -56 20 -27 25 -29 30 -14 8 19 -46 78 -59 65 -4 -4 -5 0 -3 8 2
9 -3 14 -12 12 -8 -2 -12 0 -8 4 4 4 3 13 -3 21 -6 7 -8 13 -3 13 5 1 -2 7
-16 15 -35 20 -68 18 -80 -4z m174 -117 c5 -14 4 -15 -9 -4 -17 14 -19 20 -6
20 5 0 12 -7 15 -16z"/>
<path d="M1485 3352 c28 -26 52 -46 54 -45 7 5 -82 93 -94 93 -5 0 13 -22 40
-48z"/>
<path d="M3105 3080 c3 -5 8 -10 11 -10 2 0 4 5 4 10 0 6 -5 10 -11 10 -5 0
-7 -4 -4 -10z"/>
<path d="M3025 2500 c-19 -8 -19 -9 3 -9 12 -1 22 4 22 9 0 6 -1 10 -2 9 -2 0
-12 -4 -23 -9z"/>
<path d="M2125 1940 c10 -11 20 -20 23 -20 3 0 -3 9 -13 20 -10 11 -20 20 -23
20 -3 0 3 -9 13 -20z"/>
<path d="M2150 1906 c0 -2 8 -10 18 -17 15 -13 16 -12 3 4 -13 16 -21 21 -21
13z"/>
<path d="M2300 1765 c13 -14 26 -25 28 -25 3 0 -5 11 -18 25 -13 14 -26 25
-28 25 -3 0 5 -11 18 -25z"/>
<path d="M990 2993 c-58 -13 -119 -31 -136 -39 -56 -28 -89 -113 -124 -322
-20 -119 -45 -207 -132 -467 -44 -132 -61 -155 -150 -216 -32 -22 -58 -42 -58
-45 0 -6 15 2 55 31 17 13 43 31 59 41 l29 18 -8 -23 c-5 -17 -4 -22 6 -19 8
3 18 20 24 40 5 19 16 42 22 50 7 8 10 17 7 21 -3 3 1 20 9 39 8 18 23 60 32
93 10 33 30 98 46 145 36 106 62 207 83 330 40 225 65 270 164 291 120 26 236
58 207 57 -16 0 -77 -11 -135 -25z"/>
<path d="M1263 2970 c-13 -5 -23 -11 -23 -14 0 -7 40 6 46 15 6 10 6 10 -23
-1z"/>
<path d="M826 2844 c-9 -20 -15 -38 -13 -41 2 -2 10 10 17 27 15 36 26 38 36
8 3 -13 13 -30 20 -39 13 -14 12 -18 -1 -29 -8 -7 -15 -17 -15 -23 0 -6 6 -3
14 8 13 18 23 18 71 0 11 -4 5 4 -14 18 -19 15 -45 45 -58 67 -13 22 -28 40
-32 40 -4 0 -15 -16 -25 -36z"/>
<path d="M1388 2773 c12 -2 30 -2 40 0 9 3 -1 5 -23 4 -22 0 -30 -2 -17 -4z"/>
<path d="M1300 2759 c0 -7 -27 -10 -84 -8 -46 2 -82 1 -80 -2 2 -3 65 -9 141
-13 332 -17 340 -18 433 -64 47 -22 104 -56 127 -73 24 -18 45 -30 48 -27 9 8
-115 91 -180 120 -70 32 -75 33 -258 49 -77 7 -132 16 -125 21 9 5 8 8 -4 8
-10 0 -18 -5 -18 -11z"/>
<path d="M818 2719 c-10 -17 -18 -38 -18 -47 1 -9 10 1 21 23 23 48 21 67 -3
24z"/>
<path d="M897 2712 c-37 -39 -34 -48 3 -10 17 17 29 32 27 34 -2 2 -16 -9 -30
-24z"/>
<path d="M1660 2730 c8 -5 22 -9 30 -9 10 0 8 3 -5 9 -27 12 -43 12 -25 0z"/>
<path d="M918 2668 c-19 -24 -38 -52 -41 -63 -6 -16 -4 -16 12 4 18 23 19 23
25 5 11 -32 66 -86 82 -80 15 6 20 26 6 26 -19 0 -54 82 -50 116 2 19 3 34 2
34 -1 0 -17 -19 -36 -42z m27 -40 c4 -18 19 -45 33 -60 29 -31 23 -37 -9 -10
-36 30 -65 102 -40 102 5 0 12 -15 16 -32z"/>
<path d="M1730 2705 c0 -7 39 -26 71 -35 41 -12 36 -5 -14 19 -44 21 -57 25
-57 16z"/>
<path d="M823 2665 c-3 -9 -3 -18 -1 -21 3 -3 8 4 11 16 6 23 -1 27 -10 5z"/>
<path d="M780 2635 c-7 -9 -11 -17 -9 -20 3 -2 10 5 17 15 14 24 10 26 -8 5z"/>
<path d="M811 2614 c0 -11 3 -14 6 -6 3 7 2 16 -1 19 -3 4 -6 -2 -5 -13z"/>
<path d="M1860 2626 c0 -2 19 -15 43 -30 l42 -27 -35 30 c-32 27 -50 38 -50
27z"/>
<path d="M760 2575 c0 -14 2 -25 4 -25 2 0 6 11 8 25 3 14 1 25 -3 25 -5 0 -9
-11 -9 -25z"/>
<path d="M820 2569 c-7 -11 -10 -23 -7 -25 2 -2 9 7 15 21 14 30 7 33 -8 4z"/>
<path d="M1670 2556 c0 -2 8 -10 18 -17 15 -13 16 -12 3 4 -13 16 -21 21 -21
13z"/>
<path d="M1710 2516 c0 -2 7 -7 16 -10 8 -3 12 -2 9 4 -6 10 -25 14 -25 6z"/>
<path d="M1041 2452 c9 -44 68 -102 101 -102 20 1 19 2 -7 14 -37 16 -85 70
-85 96 0 10 -4 21 -9 24 -5 4 -5 -10 0 -32z"/>
<path d="M1958 2383 c7 -3 16 -2 19 1 4 3 -2 6 -13 5 -11 0 -14 -3 -6 -6z"/>
<path d="M1395 2350 c25 -11 75 -13 75 -2 0 4 -21 8 -48 9 -34 1 -42 -1 -27
-7z"/>
<path d="M1082 2320 c0 -14 2 -19 5 -12 2 6 2 18 0 25 -3 6 -5 1 -5 -13z"/>
<path d="M1820 2286 c0 -2 7 -7 16 -10 8 -3 12 -2 9 4 -6 10 -25 14 -25 6z"/>
<path d="M1060 2250 c0 -11 2 -20 4 -20 2 0 6 9 9 20 3 11 1 20 -4 20 -5 0 -9
-9 -9 -20z"/>
<path d="M1641 2178 c1 -45 -3 -94 -8 -107 -11 -28 5 -95 38 -158 11 -21 18
-30 15 -20 -4 11 -8 31 -11 45 l-5 27 12 -25 c7 -14 18 -31 25 -38 7 -8 11
-17 8 -22 -3 -4 2 -11 11 -14 10 -4 14 -14 11 -26 -3 -11 -1 -17 4 -14 11 6
41 -59 43 -93 0 -11 4 -19 8 -17 4 3 16 -13 28 -36 11 -22 22 -40 25 -40 7 0
-13 47 -39 93 -27 49 -89 242 -83 260 2 6 -2 17 -9 24 -7 7 -15 52 -18 100 -8
107 -16 137 -40 141 -16 3 -17 -4 -15 -80z m6 -145 c-3 -10 -5 -4 -5 12 0 17
2 24 5 18 2 -7 2 -21 0 -30z"/>
<path d="M3159 2215 c-35 -31 -41 -33 -140 -40 -115 -8 -171 2 -208 36 -12 11
-25 18 -28 15 -8 -8 15 -34 36 -41 9 -3 25 -18 34 -35 18 -29 20 -30 99 -30
85 0 178 21 209 48 21 18 26 37 7 26 -7 -4 -2 5 11 19 36 39 22 41 -20 2z"/>
<path d="M1761 2204 c0 -11 3 -14 6 -6 3 7 2 16 -1 19 -3 4 -6 -2 -5 -13z"/>
<path d="M1581 2184 c0 -11 3 -14 6 -6 3 7 2 16 -1 19 -3 4 -6 -2 -5 -13z"/>
<path d="M2788 2173 c7 -3 16 -2 19 1 4 3 -2 6 -13 5 -11 0 -14 -3 -6 -6z"/>
<path d="M1781 2150 c0 -8 4 -22 9 -30 12 -18 12 -2 0 25 -6 13 -9 15 -9 5z"/>
<path d="M1581 2134 c0 -11 3 -14 6 -6 3 7 2 16 -1 19 -3 4 -6 -2 -5 -13z"/>
<path d="M2770 2141 c0 -10 37 -28 85 -40 44 -12 190 -14 217 -3 9 4 -34 7
-95 8 -91 1 -121 5 -160 22 -26 11 -47 17 -47 13z"/>
<path d="M1901 2125 c1 -19 18 -51 18 -35 0 8 -4 22 -9 30 -5 8 -9 11 -9 5z"/>
<path d="M3105 2120 c-3 -5 -2 -10 4 -10 5 0 13 5 16 10 3 6 2 10 -4 10 -5 0
-13 -4 -16 -10z"/>
<path d="M1592 2080 c0 -19 2 -27 5 -17 2 9 2 25 0 35 -3 9 -5 1 -5 -18z"/>
<path d="M1194 2043 c-21 -32 -42 -64 -47 -70 -5 -7 -7 -13 -4 -13 3 0 23 26
44 58 50 72 55 82 49 82 -3 0 -22 -26 -42 -57z"/>
<path d="M1860 2081 c0 -6 4 -13 10 -16 6 -3 7 1 4 9 -7 18 -14 21 -14 7z"/>
<path d="M2800 2080 c13 -6 27 -15 31 -21 9 -15 79 -24 79 -10 0 6 -16 11 -36
11 -21 0 -33 4 -29 10 3 6 0 10 -7 10 -7 0 -24 3 -38 5 l-25 6 25 -11z"/>
<path d="M1479 2023 c0 -27 -2 -67 -5 -90 -6 -46 18 -135 56 -208 29 -57 25
-32 -12 60 -29 74 -31 88 -29 183 1 56 0 102 -3 102 -3 0 -6 -21 -7 -47z"/>
<path d="M2948 2053 c18 -2 45 -2 60 0 15 2 0 4 -33 4 -33 0 -45 -2 -27 -4z"/>
<path d="M1214 2018 l-19 -23 23 19 c12 11 22 21 22 23 0 8 -8 2 -26 -19z"/>
<path d="M1597 2027 c-10 -26 -9 -59 2 -53 5 4 12 0 14 -6 8 -19 6 23 -2 52
-6 22 -8 23 -14 7z"/>
<path d="M1545 1968 c4 -18 14 -42 23 -53 l14 -20 -7 20 c-4 11 -11 35 -17 53
-5 17 -11 32 -14 32 -3 0 -2 -15 1 -32z"/>
<path d="M1950 1981 c0 -6 4 -13 10 -16 6 -3 7 1 4 9 -7 18 -14 21 -14 7z"/>
<path d="M1511 1945 c0 -11 6 -33 14 -50 l14 -30 -6 30 c-3 17 -10 39 -14 50
l-8 20 0 -20z"/>
<path d="M585 1939 c-4 -6 -5 -12 -2 -15 2 -3 7 2 10 11 7 17 1 20 -8 4z"/>
<path d="M886 1921 c-4 -5 3 -7 14 -4 23 6 26 13 6 13 -8 0 -17 -4 -20 -9z"/>
<path d="M1423 1895 c0 -22 2 -30 4 -17 2 12 2 30 0 40 -3 9 -5 -1 -4 -23z"/>
<path d="M964 1894 c-18 -14 -18 -14 6 -3 31 14 36 19 24 19 -6 0 -19 -7 -30
-16z"/>
<path d="M800 1890 c-13 -9 -13 -10 0 -10 8 0 22 5 30 10 13 9 13 10 0 10 -8
0 -22 -5 -30 -10z"/>
<path d="M332 1860 c-13 -34 -66 -72 -88 -63 -14 5 -16 3 -11 -11 5 -12 0 -24
-15 -37 -13 -10 -18 -18 -12 -19 5 0 25 16 44 35 19 19 38 35 44 35 5 0 18 7
28 16 22 20 20 24 48 -120 22 -110 46 -188 36 -116 -3 19 -18 96 -34 170 -25
116 -31 131 -40 110z"/>
<path d="M888 1863 c7 -3 16 -2 19 1 4 3 -2 6 -13 5 -11 0 -14 -3 -6 -6z"/>
<path d="M1690 1851 c0 -11 4 -22 9 -25 4 -3 6 6 3 19 -5 30 -12 33 -12 6z"/>
<path d="M796 1851 c5 -6 24 -6 44 -1 l35 8 -44 1 c-28 1 -41 -3 -35 -8z"/>
<path d="M954 1840 c-5 -5 -27 -16 -49 -24 -24 -9 -32 -15 -20 -15 19 -1 85
33 85 44 0 8 -5 6 -16 -5z"/>
<path d="M780 1805 c7 -9 27 -14 49 -13 l36 1 -37 4 c-21 2 -38 8 -38 14 0 5
-5 9 -11 9 -8 0 -8 -5 1 -15z"/>
<path d="M2955 1810 c-3 -5 -1 -10 4 -10 6 0 11 5 11 10 0 6 -2 10 -4 10 -3 0
-8 -4 -11 -10z"/>
<path d="M1715 1783 c15 -32 25 -42 25 -24 0 5 -9 19 -20 32 l-21 24 16 -32z"/>
<path d="M2895 1770 c-39 -41 -28 -43 13 -2 19 17 30 32 25 32 -5 0 -22 -13
-38 -30z"/>
<path d="M2949 1785 c-14 -8 -34 -26 -44 -41 -9 -14 -12 -24 -7 -20 6 3 12 2
14 -3 1 -6 23 10 47 35 45 44 40 56 -10 29z"/>
<path d="M916 1767 c-56 -19 -61 -19 -88 -4 -24 14 -28 14 -28 2 0 -20 -19
-19 -26 0 -8 19 -28 19 -46 1 -8 -7 -23 -16 -35 -20 -11 -4 -23 -15 -26 -26
-4 -16 -2 -17 19 -8 13 6 22 14 20 17 -2 3 6 6 17 7 12 0 31 4 42 8 19 7 19 7
2 -7 -13 -11 -15 -16 -5 -20 8 -3 2 -9 -14 -17 -16 -7 -28 -17 -28 -22 0 -4
18 4 40 18 44 29 50 36 23 28 -14 -5 -15 -4 -4 4 10 7 22 7 39 -1 l24 -11 -21
-17 c-12 -10 -21 -20 -21 -23 0 -8 34 6 41 17 4 5 22 13 40 17 l34 8 -30 1
c-16 1 -37 6 -45 11 -11 7 -6 10 20 10 19 0 58 11 85 24 60 29 51 30 -29 3z"/>
<path d="M1138 1773 c-18 -21 -31 -43 -25 -43 2 0 13 14 25 30 25 33 24 41 0
13z"/>
<path d="M1411 1785 c0 -5 6 -21 14 -35 8 -14 14 -20 14 -15 0 6 -6 21 -14 35
-8 14 -14 21 -14 15z"/>
<path d="M1010 1754 c-34 -14 -47 -24 -33 -24 20 0 93 36 93 46 0 2 -1 3 -2 3
-2 -1 -28 -12 -58 -25z"/>
<path d="M928 1723 c7 -3 16 -2 19 1 4 3 -2 6 -13 5 -11 0 -14 -3 -6 -6z"/>
<path d="M1340 1710 c6 -11 13 -20 16 -20 2 0 0 9 -6 20 -6 11 -13 20 -16 20
-2 0 0 -9 6 -20z"/>
<path d="M154 1688 l-29 -33 33 29 c17 17 32 31 32 33 0 8 -8 1 -36 -29z"/>
<path d="M685 1689 c-51 -39 -57 -46 -19 -24 42 24 81 55 69 54 -5 0 -28 -14
-50 -30z"/>
<path d="M569 1669 l-24 -20 28 17 c15 9 27 18 27 20 0 8 -8 4 -31 -17z"/>
<path d="M1477 1660 c3 -10 12 -25 21 -32 13 -11 12 -8 -2 20 -19 36 -27 41
-19 12z"/>
<path d="M775 1660 c-3 -5 -1 -10 4 -10 6 0 11 5 11 10 0 6 -2 10 -4 10 -3 0
-8 -4 -11 -10z"/>
<path d="M710 1614 c-54 -43 -61 -50 -35 -36 23 13 92 71 85 72 -3 0 -25 -16
-50 -36z"/>
<path d="M1850 1622 c0 -20 139 -226 147 -218 3 2 -14 29 -36 59 -23 29 -41
58 -41 63 0 5 -16 31 -35 58 -19 27 -35 44 -35 38z"/>
<path d="M411 1529 c-1 -4 15 -65 34 -135 20 -71 34 -139 32 -151 -5 -28 4
-30 20 -4 9 14 9 21 1 23 -5 2 -16 33 -24 68 -12 59 -61 214 -63 199z"/>
<path d="M520 1279 c0 -5 5 -7 10 -4 6 3 10 8 10 11 0 2 -4 4 -10 4 -5 0 -10
-5 -10 -11z"/>
<path d="M643 1185 c0 -22 2 -30 4 -17 2 12 2 30 0 40 -3 9 -5 -1 -4 -23z"/>
<path d="M648 1055 c-10 -124 -27 -145 -67 -82 -27 41 -27 23 -1 -21 13 -21
27 -32 37 -30 24 4 44 81 41 153 l-3 60 -7 -80z"/>
<path d="M651 929 c-14 -42 -7 -49 9 -9 7 17 10 33 8 36 -3 3 -11 -9 -17 -27z"/>
<path d="M620 865 c-7 -9 -10 -18 -7 -21 3 -3 10 4 17 15 13 25 8 27 -10 6z"/>
</g>
</svg>
